<svg width="352.8" height="312.8" version="1.1" viewBox="0 0 352.8 312.8" xml:space="preserve" xmlns="http://www.w3.org/2000/svg">
<style type="text/css">
	.st0{fill:#EAECEF;}
	.st1{fill:#2D425E;}
	.st2{fill:#C9C9C9;}
	.st3{fill:#CECECE;}
	.st4{fill:#FFFFFF;}
	.st5{fill:none;stroke:#1F3969;stroke-width:4;stroke-linecap:round;stroke-linejoin:round;stroke-miterlimit:10;}
	.st6{fill:#FF3E3E;}
	.st7{opacity:0.28;fill:#1F3969;stroke:#1F3969;stroke-width:4;stroke-linecap:round;stroke-linejoin:round;stroke-miterlimit:10;}
	.st8{fill:#50B56F;}
	.st9{fill:#5F5AFF;}
	.st10{fill:#F6F9FD;}
	.st11{fill:#BFCFE2;}
	.st12{fill:#D0DDF0;}
	.st13{fill:#2AA1FF;}
	.st14{opacity:0.34;fill:none;stroke:#FFFFFF;stroke-width:2;stroke-linecap:round;stroke-linejoin:round;stroke-miterlimit:10;}
	.st15{opacity:0.34;}
	.st16{fill:none;stroke:#FFFFFF;stroke-width:2;stroke-linecap:round;stroke-linejoin:round;stroke-miterlimit:10;}
	.st17{fill:#1F3969;}
	.st18{fill:none;stroke:#FFFFFF;stroke-width:4;stroke-linecap:round;stroke-linejoin:round;stroke-miterlimit:10;}
	.st19{fill:none;stroke:#7BFFA0;stroke-width:4;stroke-linecap:round;stroke-linejoin:round;stroke-miterlimit:10;}
	.st20{fill:none;stroke:#9169FF;stroke-width:4;stroke-linecap:round;stroke-linejoin:round;stroke-miterlimit:10;}
	.st21{fill:none;stroke:#FFC47D;stroke-width:4;stroke-linecap:round;stroke-linejoin:round;stroke-miterlimit:10;}
	.st22{fill:none;stroke:#FF5757;stroke-width:4;stroke-linecap:round;stroke-linejoin:round;stroke-miterlimit:10;}
	.st23{fill:#FFA364;}
	.st24{fill:#FF5252;}
	.st25{fill:#6567C3;}
</style>


<g id="XMLID_34_" transform="translate(-340.9,-323.6)">
	
	<g id="XMLID_19_" transform="translate(-67,4)">
		
		
		
		
		
		
		
		
		
		<path id="XMLID_69_" class="st11" d="m607.6 609-3-33.7h-49.4l-3 33.7c-0.7 7.8-5.4 15.3-12.8 21.3v0.1h81v-0.1c-7.4-6-12.1-13.5-12.8-21.3z"/>
		<polygon id="XMLID_33_" class="st7" transform="translate(54 -24)" points="501.2 599.3 499.4 619.5 552.4 619.5 550.6 599.3"/>
		<path id="XMLID_10_" class="st5" d="m607.6 609-3-33.7h-49.4l-3 33.7c-0.7 7.8-5.4 15.3-12.8 21.3v0.1h81v-0.1c-7.4-6-12.1-13.5-12.8-21.3z"/>
		
		<path id="XMLID_63_" transform="translate(407.9,319.6)" d="m14 30.699c-6.6 0-12 5.4-12 12v206c0 6.6 5.4 12 12 12h316c6.6 0 12-5.3 12-12v-206c0-6.6-5.4-12-12-12h-316zm5.0605 17.031h306v174.6h-306v-174.6z" fill="#bfcfe2"/>
		<path id="XMLID_4_" class="st5" d="m737.9 580.3h-316c-6.6 0-12-5.4-12-12v-206c0-6.6 5.4-12 12-12h316c6.6 0 12 5.4 12 12v206c0 6.7-5.4 12-12 12z"/>
		
			
		
		
			<rect id="XMLID_11_" class="st5" transform="rotate(90)" x="367.33" y="-732.96" width="174.6" height="306"/>
		<line id="XMLID_9_" class="st5" x1="566.5" x2="593.4" y1="561" y2="561"/>
		
		
		
		
		
		
		
		
		
		
		
		
		
		
		
		
		
		
		
		
		
		
	</g>
	
</g>

</svg>
