<svg width="352.8" height="312.8" version="1.1" viewBox="0 0 352.8 312.8" xml:space="preserve" xmlns="http://www.w3.org/2000/svg">
<style type="text/css">
	.st0{fill:#EAECEF;}
	.st1{fill:#2D425E;}
	.st2{fill:#C9C9C9;}
	.st3{fill:#CECECE;}
	.st4{fill:#FFFFFF;}
	.st5{fill:none;stroke:#1F3969;stroke-width:4;stroke-linecap:round;stroke-linejoin:round;stroke-miterlimit:10;}
	.st6{fill:#FF3E3E;}
	.st7{opacity:0.28;fill:#1F3969;stroke:#1F3969;stroke-width:4;stroke-linecap:round;stroke-linejoin:round;stroke-miterlimit:10;}
	.st8{fill:#50B56F;}
	.st9{fill:#5F5AFF;}
	.st10{fill:#F6F9FD;}
	.st11{fill:#BFCFE2;}
	.st12{fill:#D0DDF0;}
	.st13{fill:#2AA1FF;}
	.st14{opacity:0.34;fill:none;stroke:#FFFFFF;stroke-width:2;stroke-linecap:round;stroke-linejoin:round;stroke-miterlimit:10;}
	.st15{opacity:0.34;}
	.st16{fill:none;stroke:#FFFFFF;stroke-width:2;stroke-linecap:round;stroke-linejoin:round;stroke-miterlimit:10;}
	.st17{fill:#1F3969;}
	.st18{fill:none;stroke:#FFFFFF;stroke-width:4;stroke-linecap:round;stroke-linejoin:round;stroke-miterlimit:10;}
	.st19{fill:none;stroke:#7BFFA0;stroke-width:4;stroke-linecap:round;stroke-linejoin:round;stroke-miterlimit:10;}
	.st20{fill:none;stroke:#9169FF;stroke-width:4;stroke-linecap:round;stroke-linejoin:round;stroke-miterlimit:10;}
	.st21{fill:none;stroke:#FFC47D;stroke-width:4;stroke-linecap:round;stroke-linejoin:round;stroke-miterlimit:10;}
	.st22{fill:none;stroke:#FF5757;stroke-width:4;stroke-linecap:round;stroke-linejoin:round;stroke-miterlimit:10;}
	.st23{fill:#FFA364;}
	.st24{fill:#FF5252;}
	.st25{fill:#6567C3;}
</style>


<g id="XMLID_34_" transform="translate(-340.9,-323.6)">
	
	<g id="XMLID_19_" transform="translate(-67,4)">
		
		
		
		
		
		
		
		
		
		
		
		
		
		
		
		
			
		
		
			
		
		
		
		
		
		
		
		<g id="XMLID_72_" transform="translate(54 -24)">
			<path id="XMLID_7_" class="st7" d="m688.7 545.3h-116c-4.4 0-8-3.6-8-8v-122.9c0-4.4 3.6-8 8-8h116c4.4 0 8 3.6 8 8v122.9c0 4.5-3.6 8-8 8z"/>
			<path id="XMLID_16_" class="st13" d="m696.7 538.3h-116c-4.4 0-8-3.6-8-8v-122.9c0-4.4 3.6-8 8-8h116c4.4 0 8 3.6 8 8v122.9c0 4.5-3.6 8-8 8z"/>
			<path id="XMLID_14_" class="st5" d="m696.7 538.3h-116c-4.4 0-8-3.6-8-8v-122.9c0-4.4 3.6-8 8-8h116c4.4 0 8 3.6 8 8v122.9c0 4.5-3.6 8-8 8z"/>
			<path id="XMLID_75_" class="st14" d="m679.4 437.5h-81.6c-2.9 0-5.2-2.3-5.2-5.2v-7.8c0-2.9 2.3-5.2 5.2-5.2h81.6c2.9 0 5.2 2.3 5.2 5.2v7.8c0 2.9-2.3 5.2-5.2 5.2z"/>
			<g id="XMLID_143_" class="st15">
				<path id="XMLID_78_" class="st16" d="m643.6 466.8h-45.6c-2.9 0-5.2-2.3-5.2-5.2v-7.8c0-2.9 2.3-5.2 5.2-5.2h45.6c2.9 0 5.2 2.3 5.2 5.2v7.8c-0.1 2.9-2.4 5.2-5.2 5.2z"/>
				<path id="XMLID_79_" class="st16" d="m679.5 466.8h-17.7c-2.9 0-5.2-2.3-5.2-5.2v-7.8c0-2.9 2.3-5.2 5.2-5.2h17.7c2.9 0 5.2 2.3 5.2 5.2v7.8c0 2.9-2.3 5.2-5.2 5.2z"/>
			</g>
			<g id="XMLID_76_">
				<line id="XMLID_135_" class="st16" x1="592.7" x2="684.6" y1="497.2" y2="497.2"/>
				<line id="XMLID_136_" class="st16" x1="592.7" x2="684.6" y1="508" y2="508"/>
				<line id="XMLID_138_" class="st16" x1="592.7" x2="648.7" y1="518.8" y2="518.8"/>
			</g>
		</g>
		
		
		
		
		
		
		
		
		
		
		
		
		
		
		
	</g>
	
</g>

</svg>
