<svg width="352.8" height="312.8" version="1.1" viewBox="0 0 352.8 312.8" xml:space="preserve" xmlns="http://www.w3.org/2000/svg">
<style type="text/css">
	.st0{fill:#EAECEF;}
	.st1{fill:#2D425E;}
	.st2{fill:#C9C9C9;}
	.st3{fill:#CECECE;}
	.st4{fill:#FFFFFF;}
	.st5{fill:none;stroke:#1F3969;stroke-width:4;stroke-linecap:round;stroke-linejoin:round;stroke-miterlimit:10;}
	.st6{fill:#FF3E3E;}
	.st7{opacity:0.28;fill:#1F3969;stroke:#1F3969;stroke-width:4;stroke-linecap:round;stroke-linejoin:round;stroke-miterlimit:10;}
	.st8{fill:#50B56F;}
	.st9{fill:#5F5AFF;}
	.st10{fill:#F6F9FD;}
	.st11{fill:#BFCFE2;}
	.st12{fill:#D0DDF0;}
	.st13{fill:#2AA1FF;}
	.st14{opacity:0.34;fill:none;stroke:#FFFFFF;stroke-width:2;stroke-linecap:round;stroke-linejoin:round;stroke-miterlimit:10;}
	.st15{opacity:0.34;}
	.st16{fill:none;stroke:#FFFFFF;stroke-width:2;stroke-linecap:round;stroke-linejoin:round;stroke-miterlimit:10;}
	.st17{fill:#1F3969;}
	.st18{fill:none;stroke:#FFFFFF;stroke-width:4;stroke-linecap:round;stroke-linejoin:round;stroke-miterlimit:10;}
	.st19{fill:none;stroke:#7BFFA0;stroke-width:4;stroke-linecap:round;stroke-linejoin:round;stroke-miterlimit:10;}
	.st20{fill:none;stroke:#9169FF;stroke-width:4;stroke-linecap:round;stroke-linejoin:round;stroke-miterlimit:10;}
	.st21{fill:none;stroke:#FFC47D;stroke-width:4;stroke-linecap:round;stroke-linejoin:round;stroke-miterlimit:10;}
	.st22{fill:none;stroke:#FF5757;stroke-width:4;stroke-linecap:round;stroke-linejoin:round;stroke-miterlimit:10;}
	.st23{fill:#FFA364;}
	.st24{fill:#FF5252;}
	.st25{fill:#6567C3;}
</style>


<g id="XMLID_34_" transform="translate(-340.9,-323.6)">
	
	<g id="XMLID_19_" transform="translate(-67,4)">
		
		
		
		
		
		
		
		
		
		
		
		
		
		
		
		
			
		<path id="XMLID_197_" class="st7" d="m437.9 350.3v138.6c0 4.4 3.6 8 8 8h189.1c4.4 0 8-3.6 8-8v-138.6z"/>
		
			
		
		<path id="XMLID_15_" class="st1" d="m644 485.9h-189.1c-4.4 0-8-3.6-8-8v-148.2c0-4.4 3.6-8 8-8h189.1c4.4 0 8 3.6 8 8v148.3c0 4.4-3.6 7.9-8 7.9z"/>
		<path id="XMLID_17_" class="st5" d="m652 341.1h-205.1v-11.5c0-4.4 3.6-8 8-8h189.1c4.4 0 8 3.6 8 8z"/>
		<path id="XMLID_23_" class="st12" d="m652 344.9h-205.1v-15.3c0-4.4 3.6-8 8-8h189.1c4.4 0 8 3.6 8 8z"/>
		<path id="XMLID_18_" class="st5" d="m652 344.9h-205.1v-15.3c0-4.4 3.6-8 8-8h189.1c4.4 0 8 3.6 8 8z"/>
		<path id="XMLID_20_" class="st5" d="m652 344.9h-205.1v-15.3c0-4.4 3.6-8 8-8h189.1c4.4 0 8 3.6 8 8z"/>
		<path id="XMLID_12_" class="st5" d="m644 485.9h-189.1c-4.4 0-8-3.6-8-8v-148.2c0-4.4 3.6-8 8-8h189.1c4.4 0 8 3.6 8 8v148.3c0 4.4-3.6 7.9-8 7.9z"/>
		
		<circle id="XMLID_24_" class="st17" cx="467" cy="333.3" r="4"/>
		<circle id="XMLID_28_" class="st17" cx="480.9" cy="333.3" r="4"/>
		<circle id="XMLID_38_" class="st17" cx="494.8" cy="333.3" r="4"/>
		<g id="XMLID_61_" transform="translate(54 -24)">
			<line id="XMLID_54_" class="st18" x1="510.7" x2="523.7" y1="387.4" y2="387.4"/>
			<line id="XMLID_66_" class="st19" x1="444.8" x2="501.1" y1="387.4" y2="387.4"/>
			<line id="XMLID_29_" class="st20" x1="417" x2="436.8" y1="387.4" y2="387.4"/>
		</g>
		<g id="XMLID_42_" transform="translate(54 -24)">
			<line id="XMLID_62_" class="st20" x1="442.8" x2="485.8" y1="485.9" y2="485.9"/>
			<line id="XMLID_30_" class="st19" x1="417" x2="430.9" y1="485.9" y2="485.9"/>
		</g>
		<g id="XMLID_27_" transform="translate(54 -24)">
			<line id="XMLID_60_" class="st18" x1="501.1" x2="509.2" y1="399.7" y2="399.7"/>
			<line id="XMLID_45_" class="st20" x1="464.3" x2="491.5" y1="399.7" y2="399.7"/>
			<line id="XMLID_47_" class="st21" x1="426.9" x2="454.6" y1="399.7" y2="399.7"/>
		</g>
		<g id="XMLID_49_" transform="translate(54 -24)">
			<line id="XMLID_59_" class="st18" x1="469.8" x2="493.7" y1="412" y2="412"/>
			<line id="XMLID_50_" class="st22" x1="439.8" x2="462.3" y1="412" y2="412"/>
		</g>
		<g id="XMLID_65_" transform="translate(54 -24)">
			<line id="XMLID_58_" class="st18" x1="473" x2="477.9" y1="424.3" y2="424.3"/>
			<line id="XMLID_70_" class="st20" x1="453.2" x2="464.3" y1="424.3" y2="424.3"/>
			<line id="XMLID_67_" class="st19" x1="426.9" x2="444.8" y1="424.3" y2="424.3"/>
		</g>
		<g id="XMLID_73_" transform="translate(54 -24)">
			<line id="XMLID_77_" class="st21" x1="465.3" x2="497.2" y1="436.7" y2="436.7"/>
			<line id="XMLID_74_" class="st22" x1="426.9" x2="455.5" y1="436.7" y2="436.7"/>
		</g>
		<g id="XMLID_80_" transform="translate(54 -24)">
			<line id="XMLID_64_" class="st20" x1="502.2" x2="519.5" y1="449" y2="449"/>
			<line id="XMLID_84_" class="st22" x1="465.3" x2="493" y1="449" y2="449"/>
			<line id="XMLID_81_" class="st19" x1="439.8" x2="455.5" y1="449" y2="449"/>
		</g>
		<g id="XMLID_87_" transform="translate(54 -24)">
			<line id="XMLID_95_" class="st18" x1="477.9" x2="493" y1="461.3" y2="461.3"/>
			<line id="XMLID_90_" class="st20" x1="439.8" x2="467.5" y1="461.3" y2="461.3"/>
		</g>
		<g id="XMLID_98_" transform="translate(54 -24)">
			<line id="XMLID_71_" class="st18" x1="517.2" x2="534.5" y1="473.6" y2="473.6"/>
			<line id="XMLID_102_" class="st21" x1="464.3" x2="507.8" y1="473.6" y2="473.6"/>
			<line id="XMLID_99_" class="st18" x1="426.9" x2="454.6" y1="473.6" y2="473.6"/>
		</g>
		
		
		
	</g>
	
</g>

</svg>
