<?xml version="1.0" encoding="UTF-8" standalone="no"?>
<svg
   xmlns:dc="http://purl.org/dc/elements/1.1/"
   xmlns:cc="http://creativecommons.org/ns#"
   xmlns:rdf="http://www.w3.org/1999/02/22-rdf-syntax-ns#"
   xmlns:svg="http://www.w3.org/2000/svg"
   xmlns="http://www.w3.org/2000/svg"
   xmlns:sodipodi="http://sodipodi.sourceforge.net/DTD/sodipodi-0.dtd"
   xmlns:inkscape="http://www.inkscape.org/namespaces/inkscape"
   width="352.8"
   height="312.8"
   version="1.1"
   viewBox="0 0 352.8 312.8"
   xml:space="preserve"
   id="svg2931"
   sodipodi:docname="screen_2.svg"
   inkscape:version="1.0.2 (e86c8708, 2021-01-15)"><metadata
   id="metadata2937"><rdf:RDF><cc:Work
       rdf:about=""><dc:format>image/svg+xml</dc:format><dc:type
         rdf:resource="http://purl.org/dc/dcmitype/StillImage" /><dc:title></dc:title></cc:Work></rdf:RDF></metadata><defs
   id="defs2935" /><sodipodi:namedview
   pagecolor="#ffffff"
   bordercolor="#666666"
   borderopacity="1"
   objecttolerance="10"
   gridtolerance="10"
   guidetolerance="10"
   inkscape:pageopacity="0"
   inkscape:pageshadow="2"
   inkscape:window-width="1912"
   inkscape:window-height="973"
   id="namedview2933"
   showgrid="false"
   inkscape:zoom="2.132353"
   inkscape:cx="176.39999"
   inkscape:cy="156.39999"
   inkscape:window-x="0"
   inkscape:window-y="25"
   inkscape:window-maximized="0"
   inkscape:current-layer="XMLID_19_" />
<style
   type="text/css"
   id="style2914">
	.st0{fill:#EAECEF;}
	.st1{fill:#2D425E;}
	.st2{fill:#C9C9C9;}
	.st3{fill:#CECECE;}
	.st4{fill:#FFFFFF;}
	.st5{fill:none;stroke:#1F3969;stroke-width:4;stroke-linecap:round;stroke-linejoin:round;stroke-miterlimit:10;}
	.st6{fill:#FF3E3E;}
	.st7{opacity:0.28;fill:#1F3969;stroke:#1F3969;stroke-width:4;stroke-linecap:round;stroke-linejoin:round;stroke-miterlimit:10;}
	.st8{fill:#50B56F;}
	.st9{fill:#5F5AFF;}
	.st10{fill:#F6F9FD;}
	.st11{fill:#BFCFE2;}
	.st12{fill:#D0DDF0;}
	.st13{fill:#2AA1FF;}
	.st14{opacity:0.34;fill:none;stroke:#FFFFFF;stroke-width:2;stroke-linecap:round;stroke-linejoin:round;stroke-miterlimit:10;}
	.st15{opacity:0.34;}
	.st16{fill:none;stroke:#FFFFFF;stroke-width:2;stroke-linecap:round;stroke-linejoin:round;stroke-miterlimit:10;}
	.st17{fill:#1F3969;}
	.st18{fill:none;stroke:#FFFFFF;stroke-width:4;stroke-linecap:round;stroke-linejoin:round;stroke-miterlimit:10;}
	.st19{fill:none;stroke:#7BFFA0;stroke-width:4;stroke-linecap:round;stroke-linejoin:round;stroke-miterlimit:10;}
	.st20{fill:none;stroke:#9169FF;stroke-width:4;stroke-linecap:round;stroke-linejoin:round;stroke-miterlimit:10;}
	.st21{fill:none;stroke:#FFC47D;stroke-width:4;stroke-linecap:round;stroke-linejoin:round;stroke-miterlimit:10;}
	.st22{fill:none;stroke:#FF5757;stroke-width:4;stroke-linecap:round;stroke-linejoin:round;stroke-miterlimit:10;}
	.st23{fill:#FFA364;}
	.st24{fill:#FF5252;}
	.st25{fill:#6567C3;}
</style>


<g
   id="XMLID_34_"
   transform="matrix(0.74558939,0,0,1,-253.66261,-323.6)">
	
	<g
   id="XMLID_19_"
   transform="translate(-67,4)">
		
		
		
		
		
		
		
		
		
		
		
		
		
		
		
		
			
		
		
			
		
		
		
		
		
		
		
		<g
   id="XMLID_72_"
   transform="translate(54,-24)">
			<path
   id="XMLID_7_"
   class="st7"
   d="m 688.7,545.3 h -116 c -4.4,0 -8,-3.6 -8,-8 V 414.4 c 0,-4.4 3.6,-8 8,-8 h 116 c 4.4,0 8,3.6 8,8 v 122.9 c 0,4.5 -3.6,8 -8,8 z" />
			<path
   id="XMLID_16_"
   class="st13"
   d="m 696.7,538.3 h -116 c -4.4,0 -8,-3.6 -8,-8 V 407.4 c 0,-4.4 3.6,-8 8,-8 h 116 c 4.4,0 8,3.6 8,8 v 122.9 c 0,4.5 -3.6,8 -8,8 z" />
			<path
   id="XMLID_14_"
   class="st5"
   d="m 696.7,538.3 h -116 c -4.4,0 -8,-3.6 -8,-8 V 407.4 c 0,-4.4 3.6,-8 8,-8 h 116 c 4.4,0 8,3.6 8,8 v 122.9 c 0,4.5 -3.6,8 -8,8 z" />
			<path
   id="XMLID_75_"
   class="st14"
   d="m 679.4,437.5 h -81.6 c -2.9,0 -5.2,-2.3 -5.2,-5.2 v -7.8 c 0,-2.9 2.3,-5.2 5.2,-5.2 h 81.6 c 2.9,0 5.2,2.3 5.2,5.2 v 7.8 c 0,2.9 -2.3,5.2 -5.2,5.2 z" />
			<g
   id="XMLID_143_"
   class="st15">
				<path
   id="XMLID_78_"
   class="st16"
   d="M 643.6,466.8 H 598 c -2.9,0 -5.2,-2.3 -5.2,-5.2 v -7.8 c 0,-2.9 2.3,-5.2 5.2,-5.2 h 45.6 c 2.9,0 5.2,2.3 5.2,5.2 v 7.8 c -0.1,2.9 -2.4,5.2 -5.2,5.2 z" />
				<path
   id="XMLID_79_"
   class="st16"
   d="m 679.5,466.8 h -17.7 c -2.9,0 -5.2,-2.3 -5.2,-5.2 v -7.8 c 0,-2.9 2.3,-5.2 5.2,-5.2 h 17.7 c 2.9,0 5.2,2.3 5.2,5.2 v 7.8 c 0,2.9 -2.3,5.2 -5.2,5.2 z" />
			</g>
			<g
   id="XMLID_76_">
				<line
   id="XMLID_135_"
   class="st16"
   x1="592.70001"
   x2="684.59998"
   y1="497.20001"
   y2="497.20001" />
				<line
   id="XMLID_136_"
   class="st16"
   x1="592.70001"
   x2="684.59998"
   y1="508"
   y2="508" />
				<line
   id="XMLID_138_"
   class="st16"
   x1="592.70001"
   x2="648.70001"
   y1="518.79999"
   y2="518.79999" />
			</g>
		</g>
		
		
		
		
		
		
		
		
		
		
		
		
		
		
		
	</g>
	
</g>

</svg>
